<svg xmlns="http://www.w3.org/2000/svg" width="22.32" height="24.104" viewBox="0 0 22.32 24.104">
  <path id="bellicon" d="M17.341,20.214a29.152,29.152,0,0,0,6.667-1.6,10.961,10.961,0,0,1-2.825-7.361v-.917a7.334,7.334,0,1,0-14.669,0v.917a10.961,10.961,0,0,1-2.826,7.361,29.156,29.156,0,0,0,6.668,1.6m6.985,0a29.65,29.65,0,0,1-6.985,0m6.985,0a3.667,3.667,0,1,1-6.985,0" transform="translate(-2.688 -2)" fill="none" stroke="#22222c" stroke-linecap="round" stroke-linejoin="round" stroke-width="2"/>
</svg>
