<svg xmlns="http://www.w3.org/2000/svg" width="11.495" height="11.012" viewBox="0 0 11.495 11.012">
  <g id="half_star" transform="translate(-1533.492 626.5)">
    <path id="Path_83" data-name="Path 83" d="M5.175,1.189,3.8,4.14.525,4.563a.332.332,0,0,0-.179.578L2.772,7.324,2.117,10.6a.332.332,0,0,0,.492.352L5.474,9.289c0-4.029.13-8.294,0-8.294a.332.332,0,0,0-.3.195Z" transform="translate(1533.766 -626.995)" fill="#ec1f95" fill-rule="evenodd"/>
    <path id="half_star-2" data-name="half_star" d="M5.175,1.189,3.8,4.14.525,4.563a.332.332,0,0,0-.179.578L2.772,7.324,2.117,10.6a.332.332,0,0,0,.492.352L5.474,9.289,8.342,10.95a.332.332,0,0,0,.492-.352L8.179,7.324l2.426-2.184a.332.332,0,0,0-.183-.575L7.146,4.14,5.776,1.189a.332.332,0,0,0-.6,0Z" transform="translate(1533.766 -626.995)" fill="none" stroke="#ec1f95" stroke-width="1" fill-rule="evenodd"/>
  </g>
</svg>
