<svg xmlns="http://www.w3.org/2000/svg" width="33.231" height="36" viewBox="0 0 33.231 36">
  <path id="home-filled" d="M36.923,40H28.615a2.307,2.307,0,0,1-2.308-2.308V29.385a1.846,1.846,0,0,0-1.846-1.846H20.769a1.846,1.846,0,0,0-1.846,1.846v8.308A2.307,2.307,0,0,1,16.615,40H8.308A2.307,2.307,0,0,1,6,37.692V20.074a6.925,6.925,0,0,1,2.639-5.44L21.758,4.3a1.388,1.388,0,0,1,1.714,0L36.593,14.634a6.922,6.922,0,0,1,2.638,5.438V37.692A2.307,2.307,0,0,1,36.923,40Z" transform="translate(-6 -4)" fill="#ec1f95"/>
</svg>
