<svg xmlns="http://www.w3.org/2000/svg" width="21.621" height="16.5" viewBox="0 0 21.621 16.5">
  <path id="image-icon" d="M2.25,15.75l5.159-5.159a2.25,2.25,0,0,1,3.182,0L15.75,15.75m-1.5-1.5,1.409-1.409a2.25,2.25,0,0,1,3.182,0L21.75,15.75m-18,3.75h16.5a1.5,1.5,0,0,0,1.5-1.5V6a1.5,1.5,0,0,0-1.5-1.5H3.75A1.5,1.5,0,0,0,2.25,6V18a1.5,1.5,0,0,0,1.5,1.5ZM14.25,8.25h.008v.008H14.25Zm.375,0a.375.375,0,1,1-.375-.375A.375.375,0,0,1,14.625,8.25Z" transform="translate(-1.189 -3.75)" fill="none" stroke="#000" stroke-linecap="round" stroke-linejoin="round" stroke-width="1.5"/>
</svg>
