<svg xmlns="http://www.w3.org/2000/svg" width="37.626" height="36" viewBox="0 0 37.626 36">
  <path id="makeup-icon" d="M11.332,12.448H18.44l4.077-8.905a12.024,12.024,0,0,0-7.081-2.323V7.226a.6.6,0,1,1-1.2,0v-6A14.686,14.686,0,0,0,6.823,3.566Zm.141,19.125h6.745V17.114H11.473Zm6.745,1.212H11.473v1.991h6.745ZM19.43,21.2l5.288-4.681a.6.6,0,0,1,.8.9l-6.088,5.39v2.4a.526.526,0,0,1,.176.085,6.527,6.527,0,1,0-.074-10.487.55.55,0,0,1-.1.06v2.451l2.2-1.975a.6.6,0,1,1,.805.9l-2.859,2.564a.6.6,0,0,1-.148.1Zm0-7.617a7.6,7.6,0,1,1,0,12.889V29.26a.582.582,0,0,1,.107.033,9.977,9.977,0,0,0,1.913.592,10.053,10.053,0,1,0,.628-19.816,9.986,9.986,0,0,0-1.342.278l-.007,0-1.3,2.837v.4Zm1.864-4.472c.212-.041.426-.077.642-.107a11.245,11.245,0,0,1,1.516-.1,11.13,11.13,0,0,1,4.643,21.241h8.994a.537.537,0,0,1,.537.537v.465a4.785,4.785,0,0,1-4.773,4.773H18.619a1.211,1.211,0,0,1-.4.068H11.473a1.214,1.214,0,0,1-1.212-1.212V13.011L5.507,3.644a.6.6,0,0,1,.182-.759A15.9,15.9,0,0,1,14.976,0a13.181,13.181,0,0,1,8.683,2.918.6.6,0,0,1,.129.747L21.294,9.113ZM19.428,34.845H32.853a3.707,3.707,0,0,0,3.7-3.627H19.43v3.558l0,.069ZM.417,21.292h.632v-5.32a.394.394,0,0,1,.394-.394H2.2v-7.9a5.826,5.826,0,0,1,3.923,2.692v5.21h.611a.394.394,0,0,1,.394.394v5.32H7.84a.418.418,0,0,1,.417.417V35.583A.417.417,0,0,1,7.84,36H.417A.421.421,0,0,1,0,35.581V21.709a.418.418,0,0,1,.417-.417Zm1.417,0h4.5V16.363h-4.5Zm9.64-5.39h6.745V13.911H11.473Z"/>
</svg>
