<svg xmlns="http://www.w3.org/2000/svg" width="9.356" height="11.196" viewBox="0 0 9.356 11.196">
  <path id="map-icon" d="M-2190.322-259.8h0a9.973,9.973,0,0,1-2.089-1.6,7.852,7.852,0,0,1-1.436-1.921,5.6,5.6,0,0,1-.653-2.595,4.134,4.134,0,0,1,4.178-4.078,4.133,4.133,0,0,1,4.178,4.078,5.6,5.6,0,0,1-.653,2.595,7.846,7.846,0,0,1-1.436,1.921,9.967,9.967,0,0,1-2.089,1.6Zm-.144-8.472a1.441,1.441,0,0,0-1.456,1.421,1.441,1.441,0,0,0,1.456,1.421,1.44,1.44,0,0,0,1.456-1.421A1.44,1.44,0,0,0-2190.465-268.276Z" transform="translate(2195 270.5)" fill="rgba(213,213,213,0)" stroke="#b0b0b0" stroke-linecap="round" stroke-linejoin="round" stroke-width="1"/>
</svg>
