<svg xmlns="http://www.w3.org/2000/svg" width="12.645" height="12.645" viewBox="0 0 12.645 12.645">
  <path id="phone-icon" d="M2.25,4.335a6.95,6.95,0,0,0,6.95,6.95h1.043a1.043,1.043,0,0,0,1.043-1.043V9.607a.521.521,0,0,0-.395-.506L8.841,8.589a.521.521,0,0,0-.544.193l-.449.6a.492.492,0,0,1-.561.176,5.576,5.576,0,0,1-3.31-3.31.492.492,0,0,1,.176-.561l.6-.449a.52.52,0,0,0,.193-.544L4.434,2.645a.521.521,0,0,0-.506-.395H3.293A1.043,1.043,0,0,0,2.25,3.293Z" transform="matrix(0.951, -0.309, 0.309, 0.951, -2.205, 1.978)" fill="none" stroke="#b0b0b0" stroke-linecap="round" stroke-linejoin="round" stroke-width="1"/>
</svg>
