<svg xmlns="http://www.w3.org/2000/svg" width="10.294" height="10.226" viewBox="0 0 10.294 10.226">
  <path id="website-icon" d="M7.613,12.226A4.615,4.615,0,0,0,12.08,8.768M7.613,12.226A4.615,4.615,0,0,1,3.146,8.768m4.467,3.458c1.274,0,2.306-2.066,2.306-4.613S8.887,3,7.613,3m0,9.226c-1.274,0-2.306-2.066-2.306-4.613S6.339,3,7.613,3m0,0a4.611,4.611,0,0,1,4.02,2.348M7.613,3a4.611,4.611,0,0,0-4.02,2.348m8.04,0a6.15,6.15,0,0,1-8.04,0m8.04,0a4.631,4.631,0,0,1,.447,3.419m0,0a9.24,9.24,0,0,1-8.935,0m0,0a4.631,4.631,0,0,1,.447-3.419" transform="translate(-2.466 -2.5)" fill="none" stroke="#b0b0b0" stroke-linecap="round" stroke-linejoin="round" stroke-width="1"/>
</svg>
